#!OML:ASF F:\VICON\USERDATA\INSTALL\rory3\rory3.ASF
:FULLY-SPECIFIED
:DEGREES
223
root 4.87966 17.7989 -1.67213 -8.29253 -44.7011 11.3513
lowerback 10.9025 0.0393815 -7.1827
upperback 1.36291 -0.874531 -0.807638
thorax -4.59725 -0.325504 3.32855
lowerneck -20.6575 -4.31783 -10.323
upperneck 22.7354 -4.49203 6.49454
head 11.1877 -2.16422 3.38795
rclavicle -1.6201e-014 1.70955e-014
rhumerus -32.7338 -6.3897 -82.1969
rradius 37.0712
rwrist 4.99183
rhand -14.6135 11.7036
rfingers 7.12502
rthumb 11.5375 -17.9589
lclavicle -1.6201e-014 1.70955e-014
lhumerus -26.2543 -2.31144 83.0347
lradius 38.5332
lwrist -7.21938
lhand -15.924 25.9913
lfingers 7.12502
lthumb 10.2735 55.7204
rfemur -31.4343 -0.966937 10.9935
rtibia 27.192
rfoot -5.60999 -9.36203
rtoes 7.72161
lfemur 15.7704 -4.11531 -32.3536
ltibia -2.22639e-014
lfoot -6.51277 -6.32911
ltoes 0.347868
224
root 4.75514 17.7883 -1.58144 -8.23685 -44.317 11.3882
lowerback 10.8669 -0.0819777 -7.24372
upperback 1.37782 -1.03932 -0.818858
thorax -4.54272 -0.408083 3.3739
lowerneck -20.8167 -4.25803 -10.169
upperneck 22.8628 -4.44515 6.48591
head 11.2566 -2.1295 3.36826
rclavicle 3.28492e-014 9.14409e-015
rhumerus -32.7653 -6.63163 -82.1342
rradius 36.9616
rwrist 5.24296
rhand -14.6186 11.6065
rfingers 7.12502
rthumb 11.5326 -18.0562
lclavicle 3.28492e-014 9.14409e-015
lhumerus -26.0203 -2.67827 83.0994
lradius 38.6393
lwrist -7.02348
lhand -15.82 26.0644
lfingers 7.12502
lthumb 10.3738 55.7886
rfemur -31.2353 0.21065 10.2472
rtibia 25.3171
rfoot -7.25173 -10.0496
rtoes 5.36806
lfemur 16.2815 -4.6375 -32.5074
ltibia -6.36111e-015
lfoot -6.47076 -5.91649
ltoes -0.508167
225
root 4.62915 17.7785 -1.4917 -8.11924 -43.9419 11.4109
lowerback 10.225 -0.103588 -6.88572
upperback 1.80419 -0.96816 -1.10414
thorax -3.75612 -0.419204 2.8511
lowerneck -21.1598 -4.51158 -10.1699
upperneck 22.585 -4.84922 6.85845
head 11.2672 -2.2538 3.43456
rclavicle -1.34677e-014 2.78299e-015
rhumerus -32.271 -7.60781 -82.2804
rradius 36.8478
rwrist 5.41506
rhand -14.6011 11.4893
rfingers 7.12502
rthumb 11.5495 -18.1725
lclavicle -1.34677e-014 2.78299e-015
lhumerus -25.0407 -3.73292 83.0109
lradius 38.7031
lwrist -6.69934
lhand -16.0098 25.9532
lfingers 7.12502
lthumb 10.1907 55.6864
rfemur -31.1041 1.24392 9.56228
rtibia 23.765
rfoot -9.00178 -10.5773
rtoes 3.23425
lfemur 16.7313 -5.17034 -32.6118
ltibia 2.8625e-014
lfoot -6.43557 -5.61999
ltoes -0.810526
226
root 4.50303 17.764 -1.39403 -8.09651 -43.6855 11.315
lowerback 9.99828 -0.173425 -6.62814
upperback 2.00942 -1.00953 -1.19006
thorax -3.41747 -0.459081 2.61749
lowerneck -21.1992 -4.57583 -10.1983
upperneck 22.354 -4.94593 6.9847
head 11.2021 -2.27999 3.46605
rclavicle -5.58088e-014 1.35174e-014
rhumerus -32.1686 -7.84923 -82.3366
rradius 36.7705
rwrist 5.27169
rhand -14.6381 11.4435
rfingers 7.12502
rthumb 11.5138 -18.2203
lclavicle -5.58088e-014 1.35174e-014
lhumerus -24.6591 -4.14269 83.0506
lradius 38.8036
lwrist -6.6941
lhand -16.5379 25.8694
lfingers 7.12502
lthumb 9.68121 55.6269
rfemur -30.842 1.90934 9.19537
rtibia 22.5832
rfoot -10.6095 -10.8296
rtoes 0.950376
lfemur 17.4033 -5.55938 -32.636
ltibia 1.90833e-014
lfoot -6.50968 -5.32238
ltoes -1.74722
227
root 4.3786 17.7483 -1.29362 -8.06365 -43.5015 11.2198
lowerback 10.1608 -0.311974 -6.68546
upperback 1.88864 -1.20932 -1.02206
thorax -3.61035 -0.54696 2.85378
lowerneck -21.1515 -4.47034 -10.2952
upperneck 22.4239 -4.73245 6.83488
head 11.1967 -2.21251 3.46289
rclavicle -1.23793e-013 1.94809e-014
rhumerus -32.4267 -7.40698 -82.1884
rradius 36.6638
rwrist 5.04697
rhand -14.642 11.2071
rfingers 7.12502
rthumb 11.51 -18.4569
lclavicle -1.23793e-013 1.94809e-014
lhumerus -24.8225 -3.9293 83.2985
lradius 38.8431
lwrist -6.67032
lhand -16.8267 25.8351
lfingers 7.12502
lthumb 9.40251 55.6054
rfemur -30.6336 2.2022 9.02552
rtibia 21.79
rfoot -11.9249 -10.8532
rtoes -1.7965
lfemur 18.0347 -5.8832 -32.6363
ltibia 0
lfoot -6.42431 -5.1948
ltoes -1.14044
228
root 4.25528 17.7426 -1.19732 -7.88561 -43.316 11.0662
lowerback 10.6825 -0.50273 -6.99948
upperback 1.39781 -1.53964 -0.630928
thorax -4.36396 -0.663546 3.49986
lowerneck -20.8004 -4.24492 -10.4029
upperneck 22.6615 -4.31026 6.38555
head 11.1693 -2.09817 3.38794
rclavicle -3.8266e-014 5.96354e-015
rhumerus -33.1791 -6.5598 -81.7709
rradius 36.5739
rwrist 4.92128
rhand -14.4641 11.1815
rfingers 7.12502
rthumb 11.6815 -18.4728
lclavicle -3.8266e-014 5.96354e-015
lhumerus -25.5986 -3.11699 83.681
lradius 38.9374
lwrist -6.86046
lhand -16.2401 26.0431
lfingers 7.12502
lthumb 9.96852 55.7871
rfemur -30.5365 2.27642 9.0289
rtibia 21.4147
rfoot -12.634 -10.8326
rtoes -5.23766
lfemur 18.5049 -6.24537 -32.5472
ltibia 6.36111e-015
lfoot -6.20641 -5.26219
ltoes 0.37034
229
root 4.13243 17.7371 -1.09848 -7.8058 -43.2473 11.0173
lowerback 9.79249 -0.398276 -6.27273
upperback 2.04577 -1.24398 -1.02984
thorax -3.24762 -0.583037 2.61035
lowerneck -21.1147 -4.57231 -10.3344
upperneck 22.1269 -4.82978 6.76414
head 11.0882 -2.26458 3.42167
rclavicle -2.9768e-014 2.06736e-014
rhumerus -32.4219 -8.04186 -81.9064
rradius 36.2844
rwrist 5.27769
rhand -14.4113 11.2453
rfingers 7.12502
rthumb 11.7325 -18.4062
lclavicle -2.9768e-014 2.06736e-014
lhumerus -24.3128 -4.10708 83.4641
lradius 38.8537
lwrist -6.89963
lhand -16.0058 25.9501
lfingers 7.12502
lthumb 10.1946 55.6831
rfemur -30.507 1.77348 9.28724
rtibia 21.4884
rfoot -12.4067 -10.3228
rtoes -9.00081
lfemur 18.9819 -6.47522 -32.5318
ltibia 3.49861e-014
lfoot -6.05538 -5.26709
ltoes 0.244306
